<?xml version="1.0" standalone="no"?>
<!DOCTYPE svg PUBLIC "-//W3C//DTD SVG 20010904//EN"
 "http://www.w3.org/TR/2001/REC-SVG-20010904/DTD/svg10.dtd">
<svg version="1.0" xmlns="http://www.w3.org/2000/svg"
 width="700.000000pt" height="700.000000pt" viewBox="0 0 700.000000 700.000000"
 preserveAspectRatio="xMidYMid meet">
<metadata>
Created by potrace 1.14, written by Peter Selinger 2001-2017
</metadata>
<g transform="translate(0.000000,700.000000) scale(0.100000,-0.100000)"
fill="#000000" stroke="none">
<path d="M850 6985 c-402 -80 -712 -373 -822 -775 l-23 -85 0 -2625 0 -2625
27 -95 c52 -187 142 -342 274 -474 132 -132 287 -222 474 -274 l95 -27 2625 0
2625 0 82 23 c192 52 355 146 487 278 132 132 222 287 274 474 l27 95 0 2625
0 2625 -23 85 c-103 378 -374 650 -757 762 l-80 23 -2610 2 c-2109 1 -2622 -1
-2675 -12z m1042 -3062 l3 -1148 24 -59 c32 -79 99 -146 177 -177 49 -19 78
-23 174 -24 104 0 120 3 171 26 109 51 172 133 198 257 8 37 11 385 11 1162
l0 1110 310 0 311 0 -3 -1177 -3 -1178 -23 -80 c-12 -44 -45 -127 -73 -185
-46 -93 -63 -116 -153 -206 -93 -93 -111 -106 -216 -157 -185 -90 -374 -125
-605 -113 -295 15 -506 98 -676 266 -95 94 -156 188 -195 300 -60 171 -57 113
-61 1373 l-4 1157 315 0 316 0 2 -1147z m3878 -438 l0 -1525 -594 0 c-631 0
-679 3 -841 51 -333 99 -568 343 -652 675 -13 53 -17 110 -17 244 0 149 3 187
23 260 89 336 347 581 702 669 127 31 254 41 514 41 l235 0 0 555 0 555 315 0
315 0 0 -1525z"/>
<path d="M4635 3333 c-151 -20 -280 -120 -331 -257 -28 -75 -26 -231 5 -308
28 -72 102 -154 171 -192 92 -50 133 -56 408 -56 l252 0 0 410 0 410 -237 -1
c-131 -1 -251 -4 -268 -6z"/>
</g>
</svg>
